<?xml version="1.0" encoding="iso-8859-1"?>
<!-- Uploaded to: SVG Repo, www.svgrepo.com, Generator: SVG Repo Mixer Tools -->
<svg xmlns="http://www.w3.org/2000/svg" xmlns:xlink="http://www.w3.org/1999/xlink" version="1.1" id="Layer_1"  viewBox="0 0 333.98 333.98" xml:space="preserve" width="512" height="512">
<g>
	<g>
		<g>
			<g>
				<path style="fill:#4D7C91;" d="M253.298,157.99c-8.284,0-15-6.716-15-15V48.009h-142v94.981c0,8.284-6.716,15-15,15      s-15-6.716-15-15V33.009c0-8.284,6.716-15,15-15h172c8.284,0,15,6.716,15,15V142.99      C268.298,151.274,261.582,157.99,253.298,157.99z"/>
			</g>
		</g>
	</g>
	<g>
		<g>
			<g>
				<path style="fill:#205B75;" d="M166.99,48.009H96.298v94.981c0,8.284-6.716,15-15,15s-15-6.716-15-15V33.009      c0-8.284,6.716-15,15-15h85.692L166.99,48.009z"/>
			</g>
		</g>
	</g>
	<path style="fill:#A99B96;" d="M318.98,127.028h-29.683v-7.038h29.683c8.284,0,15-6.716,15-15s-6.716-15-15-15h-29.683v-7   c0-8.284-6.716-15-15-15h-214c-8.284,0-15,6.716-15,15v7H15c-8.284,0-15,6.716-15,15s6.716,15,15,15h30.298v7.038H15   c-8.284,0-15,6.716-15,15s6.716,15,15,15h30.298v52.499l-22.969,20.528c-3.184,2.846-5.004,6.914-5.004,11.184v59.733   c0,8.284,6.716,15,15,15h269.945c8.284,0,15-6.716,15-15v-59.733c0-4.271-1.82-8.338-5.004-11.184l-22.969-20.528v-52.499h29.683   c8.284,0,15-6.716,15-15S327.265,127.028,318.98,127.028z"/>
	<path style="fill:#938783;" d="M166.99,67.99H60.298c-8.284,0-15,6.716-15,15v7H15c-8.284,0-15,6.716-15,15s6.716,15,15,15h30.298   v7.038H15c-8.284,0-15,6.716-15,15s6.716,15,15,15h30.298v52.499l-22.969,20.528c-3.184,2.846-5.004,6.914-5.004,11.184v59.733   c0,8.284,6.716,15,15,15H166.99L166.99,67.99z"/>
	<g>
		<g>
			<line style="fill:#FFFFFF;" x1="318.98" y1="154.028" x2="318.98" y2="92.99"/>
		</g>
		<g>
			<line style="fill:#FFFFFF;" x1="15" y1="92.99" x2="15" y2="154.028"/>
		</g>
	</g>
	<path style="fill:#FFFFFF;stroke:#1D1D1B;stroke-width:30;stroke-linecap:round;stroke-linejoin:round;stroke-miterlimit:10;" d="   M4.631,101.271"/>
	<path style="fill:#DCDBCD;" d="M242.38,52.222V154.32H92.216V52.222c0-4.418,3.582-8,8-8H234.38   C238.798,44.222,242.38,47.804,242.38,52.222z"/>
	<path style="fill:#B7B7AC;" d="M166.99,154.32H92.216V52.222c0-4.418,3.582-8,8-8h67.082L166.99,154.32z"/>
	<g>
		<line style="fill:#FFFFFF;" x1="126.965" y1="82.99" x2="207.631" y2="82.99"/>
		<path style="fill:#A99B96;" d="M207.631,97.99h-80.666c-8.284,0-15-6.716-15-15s6.716-15,15-15h80.666c8.284,0,15,6.716,15,15    S215.915,97.99,207.631,97.99z"/>
		<path style="fill:#938783;" d="M167.298,97.99h-40.333c-8.284,0-15-6.716-15-15s6.716-15,15-15h40.025L167.298,97.99z"/>
	</g>
	<path style="fill:#4D7C91;" d="M318.98,169.028c-8.284,0-15-6.716-15-15V92.99c0-8.284,6.716-15,15-15s15,6.716,15,15v61.038   C333.98,162.312,327.265,169.028,318.98,169.028z"/>
	<path style="fill:#205B75;" d="M15,169.028c-8.284,0-15-6.716-15-15V92.99c0-8.284,6.716-15,15-15s15,6.716,15,15v61.038   C30,162.312,23.284,169.028,15,169.028z"/>
	<path style="fill:#4D7C91;" d="M222.542,169.032h66.756v40.494l22.969,20.528c3.184,2.846,5.004,6.914,5.004,11.184v59.733   c0,8.284-6.716,15-15,15H32.325c-8.284,0-15-6.716-15-15v-59.733c0-4.271,1.82-8.338,5.004-11.184l22.969-20.528v-40.499h66.753   c10.913,19.914,31.938,32.681,55.247,32.681C190.605,201.709,211.629,188.943,222.542,169.032z"/>
	<path style="fill:#205B75;" d="M166.99,315.971H32.325c-8.284,0-15-6.716-15-15v-59.733c0-4.271,1.82-8.338,5.004-11.184   l22.969-20.528v-40.499h66.753c10.913,19.914,31.938,32.681,55.247,32.681L166.99,315.971z"/>
	<path style="fill:#6C4361;" d="M230.325,291.843H104.271c-8.284,0-15-6.716-15-15s6.716-15,15-15h126.055c8.284,0,15,6.716,15,15   S238.609,291.843,230.325,291.843z"/>
	<path style="fill:#58364E;" d="M166.99,291.843h-62.719c-8.284,0-15-6.716-15-15s6.716-15,15-15h63.027L166.99,291.843z"/>
	<g>
		<g>
			<circle style="fill:#58364E;" cx="108.572" cy="232.954" r="15.455"/>
			<circle style="fill:#58364E;" cx="147.723" cy="232.954" r="15.455"/>
			<circle style="fill:#6C4361;" cx="186.873" cy="232.954" r="15.455"/>
			<circle style="fill:#6C4361;" cx="226.024" cy="232.954" r="15.455"/>
		</g>
	</g>
</g>
</svg>